<svg width="195" height="40" viewBox="0 0 195 40" fill="none" xmlns="http://www.w3.org/2000/svg">
<g id="logo" clip-path="url(#clip0_1_780)">
<path id="Vector" d="M51.55 12.6509C54.9253 12.6509 56.1527 14.7988 56.3061 15.4125H59.3745C59.0677 14.1851 57.5335 9.88932 51.55 9.88932C46.9473 9.88932 43.4186 13.5715 43.4186 18.481C43.4186 23.3905 46.9473 26.9192 51.7034 26.9192C57.5335 26.9192 59.2211 22.6234 59.3745 21.5494H56.4595C56.1527 22.0097 54.9253 24.1576 51.7034 24.1576C48.635 24.1576 46.4871 21.7028 46.4871 18.481C46.4871 15.2591 48.635 12.6509 51.55 12.6509ZM65.8183 22.6234V10.3496H62.9033V26.6124H65.8183L75.3305 14.1851V26.6124H78.2455V10.3496H75.3305L65.8183 22.6234ZM81.0071 12.9578H87.6043V26.6124H90.5193V12.9578H97.1165V10.3496H81.0071V12.9578ZM102.793 22.6234V10.3496H99.8781V26.6124H102.793L112.305 14.1851V26.6124H115.22V10.3496H112.305L102.793 22.6234ZM121.511 19.4015C121.05 23.0837 120.59 24.1576 118.442 24.1576H117.982V26.7658H118.902C122.278 26.7658 123.659 24.4645 124.119 19.5549L124.733 12.9578H131.483V26.6124H134.398V10.3496H122.278L121.511 19.4015ZM142.069 22.6234V10.3496H139.154V26.6124H142.069L151.581 14.1851V26.6124H154.497V10.3496H151.581L142.069 22.6234ZM171.373 16.9468H162.321V10.3496H159.253V26.6124H162.321V19.7084H171.373V26.6124H174.441V10.3496H171.373V16.9468ZM185.181 18.1741L194.693 10.3496H190.551L181.959 17.407V10.3496H179.044V26.6124H181.959V19.0947L191.011 26.6124H195.153L185.181 18.1741ZM26.849 31.6753L9.05197 35.0506C4.44929 35.8177 0.306885 32.289 0.306885 27.6863V8.20167C0.306885 3.59899 4.44929 0.0702764 9.05197 0.990811L26.849 4.21268C29.4572 4.82637 31.4517 7.12771 31.4517 9.73589V26.1521C31.4517 28.9137 29.4572 31.215 26.849 31.6753Z" fill="#FF5200"/>
<path id="Vector_2" d="M9.9724 24.7713V11.7304C9.9724 11.1167 10.4327 10.6564 11.0464 10.8099L24.0873 12.6509V9.73591L11.66 7.89484C9.20529 7.43457 7.05737 9.42906 7.05737 11.8838V24.7713C7.05737 27.2261 9.20529 29.0671 11.66 28.6069L24.0873 26.7658V23.8508L11.0464 25.6919C10.4327 25.8453 9.9724 25.385 9.9724 24.7713Z" fill="white"/>
<g id="Group">
<path id="Vector_3" d="M44.6458 32.2891H48.1746V37.0452H47.4074V33.2097H45.4129L45.2595 35.0507C45.1061 36.4315 44.6458 37.1987 43.7253 37.1987H43.4185V36.4315H43.5719C44.1856 36.4315 44.339 36.1247 44.339 35.0507L44.6458 32.2891ZM51.243 37.0452L49.0951 32.4426H50.169L51.7033 35.9713L53.3909 32.4426H54.3115L51.0896 39.3466H50.169L51.243 37.0452ZM58.4539 35.3576H57.0731C55.8457 35.511 55.0786 34.8973 55.0786 33.6699V32.2891H55.9991V33.5165C55.9991 34.2836 56.1525 34.5905 57.0731 34.5905H58.4539V32.2891H59.3744V37.0452H58.4539V35.3576ZM61.6757 32.2891V36.2781H63.9771V32.2891H64.8976V36.2781H67.0455V32.2891H67.9661V37.1987H60.9086V32.2891H61.6757ZM73.9495 34.8973H69.9606C70.114 35.6644 70.7277 36.4315 71.6482 36.4315C72.5687 36.4315 73.029 35.9713 73.029 35.8178H73.9495C73.7961 36.1247 73.1824 37.1987 71.6482 37.1987C70.114 37.1987 69.1934 36.1247 69.1934 34.7439C69.1934 33.2097 70.114 32.2891 71.4948 32.2891C73.029 32.2891 73.9495 33.3631 73.9495 34.8973ZM70.114 34.1302H73.029C72.8756 33.3631 72.2619 33.0562 71.4948 33.0562C70.8811 33.0562 70.2674 33.3631 70.114 34.1302ZM79.6262 34.8973H75.7906C75.7906 35.6644 76.4043 36.4315 77.3248 36.4315C78.2454 36.4315 78.7056 35.9713 78.7056 35.8178H79.6262C79.6262 36.1247 79.0125 37.1987 77.3248 37.1987C75.944 37.1987 74.8701 36.1247 74.8701 34.7439C74.8701 33.2097 75.944 32.2891 77.3248 32.2891C78.7056 32.2891 79.6262 33.3631 79.6262 34.8973ZM75.7906 34.1302H78.7056C78.5522 33.3631 77.9385 33.0562 77.3248 33.0562C76.5577 33.0562 75.944 33.3631 75.7906 34.1302ZM82.3878 38.5795V36.2781H83.0015C83.3083 35.9713 83.4617 35.3576 83.6152 34.1302L83.7686 32.4426H87.2973V36.2781H88.0644V38.5795H87.2973V37.0452H83.1549V38.5795H82.3878ZM86.3768 33.2097H84.3823V34.1302C84.2288 35.3576 84.0754 35.9713 83.7686 36.2781H86.3768V33.2097ZM89.9055 32.2891H93.4342V37.0452H92.6671V33.2097H90.6726L90.5192 35.0507C90.3657 36.4315 89.9055 37.1987 88.9849 37.1987H88.6781V36.4315H88.8315C89.4452 36.4315 89.5986 36.1247 89.7521 35.0507L89.9055 32.2891ZM98.1903 37.1987V35.3576H96.8095L95.5821 37.1987H94.6616L95.889 35.3576C95.1218 35.0507 94.815 34.5905 94.815 33.8234C94.815 33.0562 95.2753 32.2891 96.5026 32.2891H99.1108V37.0452H98.1903V37.1987ZM98.1903 34.5905V33.2097H96.5026C96.0424 33.2097 95.7355 33.3631 95.7355 33.8234C95.7355 34.2836 96.0424 34.5905 96.5026 34.5905H98.1903ZM104.327 33.2097H102.333V32.2891H107.089V33.2097H105.094V37.1987H104.327V33.2097ZM112.459 34.8973H108.47C108.623 35.6644 109.237 36.4315 110.157 36.4315C111.078 36.4315 111.385 35.9713 111.538 35.8178H112.459C112.305 36.1247 111.691 37.1987 110.157 37.1987C108.623 37.1987 107.549 36.1247 107.549 34.7439C107.549 33.2097 108.623 32.2891 110.004 32.2891C111.385 32.2891 112.459 33.3631 112.459 34.8973ZM108.623 34.1302H111.538C111.231 33.3631 110.771 33.0562 110.004 33.0562C109.237 33.0562 108.776 33.3631 108.623 34.1302ZM118.442 34.8973C118.442 36.1247 117.368 37.1987 115.834 37.1987C114.3 37.1987 113.379 36.2781 113.379 34.5905L113.533 33.2097C113.533 31.6754 114.3 30.6015 116.141 30.2946L117.982 29.9878V30.9083L116.141 31.2152C114.913 31.3686 114.453 31.8289 114.3 33.2097C114.606 32.7494 115.22 32.4426 115.987 32.4426C117.368 32.4426 118.442 33.3631 118.442 34.8973ZM117.522 34.8973C117.522 33.9768 116.908 33.2097 115.834 33.2097C114.913 33.2097 114.3 33.9768 114.3 34.8973C114.3 35.8178 114.913 36.4315 115.834 36.4315C116.908 36.4315 117.522 35.6644 117.522 34.8973ZM122.738 37.1987V35.3576H121.357L120.13 37.1987H119.209L120.437 35.3576C119.669 35.0507 119.209 34.5905 119.209 33.8234C119.363 33.0562 119.823 32.2891 121.05 32.2891H123.658V37.0452H122.738V37.1987ZM122.738 34.5905V33.2097H121.05C120.437 33.2097 120.13 33.3631 120.13 33.8234C120.13 34.2836 120.437 34.5905 121.05 34.5905H122.738Z" fill="#FF5200"/>
</g>
</g>
<defs>
<clipPath id="clip0_1_780">
<rect width="195" height="38.6318" fill="white" transform="translate(0 0.684082)"/>
</clipPath>
</defs>
</svg>
