<svg width="20" height="20" viewBox="0 0 20 20" fill="none" xmlns="http://www.w3.org/2000/svg">
<g id="ok">
<path id="Vector" d="M10.0001 10.6667C12.3894 10.6667 14.3334 8.72267 14.3334 6.33333C14.3334 3.944 12.3894 2 10.0001 2C7.61075 2 5.66675 3.94467 5.66675 6.33333C5.66675 8.722 7.61075 10.6667 10.0001 10.6667ZM10.0001 4.66667C10.9194 4.66667 11.6667 5.41467 11.6667 6.33333C11.6667 7.252 10.9194 8 10.0001 8C9.08075 8 8.33342 7.25267 8.33342 6.33333C8.33342 5.414 9.08075 4.66667 10.0001 4.66667Z" fill="#5D5D64"/>
<path id="Vector_2" d="M14.2447 12.7208C14.7173 12.4068 15 11.8835 15 11.3195C15 10.8408 14.7467 10.4288 14.3227 10.2161C13.892 9.99945 13.3807 10.0475 12.9873 10.3415C11.2507 11.6401 8.74933 11.6401 7.012 10.3415C6.62 10.0475 6.108 10.0001 5.67733 10.2161C5.25333 10.4288 5 10.8408 5 11.3195C5 11.8828 5.28267 12.4068 5.75533 12.7208C6.358 13.1215 7.01533 13.4348 7.70933 13.6528C7.82667 13.6888 7.94733 13.7221 8.072 13.7535L6.058 15.7248C5.80533 15.9761 5.66667 16.3108 5.66667 16.6668C5.66667 17.0228 5.80533 17.3575 6.05733 17.6095C6.57667 18.1295 7.42333 18.1295 7.94667 17.6055L10 15.4801L12.0573 17.6095C12.3173 17.8701 12.6587 18.0001 13 18.0001C13.3413 18.0001 13.6827 17.8701 13.9427 17.6101C14.1947 17.3581 14.3333 17.0235 14.3333 16.6668C14.3333 16.3101 14.1947 15.9755 13.94 15.7215L11.928 13.7528C12.0533 13.7215 12.1747 13.6875 12.2927 13.6515C12.9853 13.4341 13.642 13.1215 14.2447 12.7208Z" fill="#5D5D64"/>
</g>
</svg>
