<svg width="20" height="20" viewBox="0 0 20 20" fill="none" xmlns="http://www.w3.org/2000/svg">
<g id="telegram" clip-path="url(#clip0_1_737)">
<path id="Vector" fill-rule="evenodd" clip-rule="evenodd" d="M4 0C1.79086 0 0 1.79086 0 4V16C0 18.2091 1.79086 20 4 20H16C18.2091 20 20 18.2091 20 16V4C20 1.79086 18.2091 0 16 0H4ZM10.896 7.13863L4.1619 9.9132C2.97693 10.3756 3.67057 10.8092 3.67057 10.8092C3.67057 10.8092 4.68213 11.156 5.54919 11.4161C6.41624 11.6762 6.87867 11.3872 6.87867 11.3872L10.9538 8.64152C12.3989 7.65886 12.0521 8.46811 11.7053 8.81493C10.9538 9.56638 9.71104 10.7514 8.67058 11.7051C8.20815 12.1097 8.43936 12.4566 8.64167 12.63C9.22982 13.1276 10.6147 14.0325 11.2442 14.4439C11.4191 14.5581 11.5356 14.6343 11.5608 14.6531C11.7053 14.7687 12.5145 15.2889 13.0058 15.1733C13.4972 15.0577 13.555 14.393 13.555 14.393L14.2775 9.8554C14.3417 9.42999 14.4059 9.01349 14.4658 8.6251C14.6216 7.61501 14.748 6.79504 14.7688 6.50279C14.8556 5.52012 13.8151 5.92475 13.8151 5.92475C13.8151 5.92475 11.5608 6.84961 10.896 7.13863Z" fill="#5D5D64"/>
</g>
<defs>
<clipPath id="clip0_1_737">
<rect width="20" height="20" fill="white"/>
</clipPath>
</defs>
</svg>
