<svg width="20" height="20" viewBox="0 0 20 20" fill="none" xmlns="http://www.w3.org/2000/svg">
<g id="tiktok">
<path id="Vector" fill-rule="evenodd" clip-rule="evenodd" d="M6.02942 15.5513C6.42546 15.7603 6.86654 15.8693 7.31429 15.8692C8.80575 15.8692 10.0233 14.6828 10.0782 13.2042L10.0837 0H13.3782C13.3785 0.280452 13.4045 0.560283 13.456 0.835967H11.0439L14.3387 0.836425C14.3382 1.94151 14.7388 3.00923 15.466 3.84133L15.467 3.84239C16.2088 4.327 17.0759 4.58467 17.962 4.58383V5.31758C18.2721 5.384 18.5928 5.41937 18.9226 5.41937V8.71467C17.2778 8.71658 15.6741 8.20088 14.3387 7.24062V13.9362C14.3387 17.2795 11.6183 20 8.27442 20C7.44171 20.0002 6.61792 19.8284 5.85467 19.4954C5.09196 19.1626 4.40621 18.676 3.84022 18.066L3.83898 18.0651C2.27515 16.9672 1.25 15.1514 1.25 13.1002C1.25 9.75629 3.97044 7.03542 7.31429 7.03542C7.58775 7.03671 7.86075 7.05662 8.1315 7.09496V7.87504C8.15054 7.87467 8.16946 7.874 8.18846 7.87337C8.21696 7.87237 8.24554 7.87138 8.27442 7.87138C8.54783 7.87267 8.82087 7.89258 9.09158 7.93092V11.2945C8.83325 11.2134 8.55979 11.1662 8.27442 11.1662C7.54008 11.1671 6.83608 11.4592 6.31687 11.9785C5.79767 12.4978 5.50567 13.2018 5.50496 13.9361C5.505 14.5161 5.689 15.0817 6.02942 15.5513ZM2.61012 16.0999C2.89156 16.8332 3.31158 17.4984 3.83764 18.0637C3.30087 17.4893 2.8864 16.8213 2.61012 16.0999Z" fill="#5D5D64"/>
</g>
</svg>
