<svg width="20" height="20" viewBox="0 0 20 20" fill="none" xmlns="http://www.w3.org/2000/svg">
<g id="vk">
<path id="Vector" fill-rule="evenodd" clip-rule="evenodd" d="M9.81474 15.2888H10.9324C10.9324 15.2888 11.27 15.2517 11.4423 15.0659C11.601 14.8953 11.5959 14.575 11.5959 14.575C11.5959 14.575 11.5741 13.0753 12.2701 12.8545C12.9562 12.637 13.8372 14.3039 14.7711 14.9448C15.4772 15.4299 16.0138 15.3235 16.0138 15.3235L18.5108 15.2888C18.5108 15.2888 19.817 15.2083 19.1977 14.1813C19.1469 14.0973 18.837 13.4216 17.3411 12.0331C15.7755 10.5799 15.9852 10.815 17.8711 8.30126C19.0197 6.7704 19.4789 5.83579 19.3355 5.43549C19.1987 5.05424 18.3539 5.15501 18.3539 5.15501L15.5425 5.17252C15.5425 5.17252 15.3341 5.14409 15.1795 5.23649C15.0285 5.32711 14.9313 5.53829 14.9313 5.53829C14.9313 5.53829 14.4863 6.72293 13.8928 7.73039C12.6409 9.85624 12.1404 9.96843 11.9358 9.83644C11.4598 9.52879 11.5786 8.60053 11.5786 7.94107C11.5786 5.88097 11.8911 5.022 10.9702 4.79964C10.6646 4.72578 10.4397 4.67704 9.65812 4.66917C8.65497 4.65877 7.80591 4.67222 7.32515 4.90777C7.00532 5.06439 6.75859 5.41341 6.90886 5.43346C7.09467 5.45834 7.51552 5.54692 7.73864 5.85076C8.02674 6.24268 8.01659 7.12297 8.01659 7.12297C8.01659 7.12297 8.18209 9.54808 7.63 9.84938C7.25103 10.056 6.73118 9.63413 5.61508 7.70551C5.04319 6.7176 4.61143 5.62561 4.61143 5.62561C4.61143 5.62561 4.52817 5.42153 4.37968 5.31238C4.19946 5.18014 3.94765 5.138 3.94765 5.138L1.27607 5.15551C1.27607 5.15551 0.875009 5.16668 0.727786 5.34107C0.596809 5.49616 0.717379 5.817 0.717379 5.817C0.717379 5.817 2.80896 10.7104 5.17722 13.1764C7.34875 15.4372 9.81474 15.2888 9.81474 15.2888Z" fill="#5D5D64"/>
</g>
</svg>
