<svg width="20" height="20" viewBox="0 0 20 20" fill="none" xmlns="http://www.w3.org/2000/svg">
<g id="youtube" clip-path="url(#clip0_1_708)">
<g id="Clip path group">
<mask id="mask0_1_708" style="mask-type:luminance" maskUnits="userSpaceOnUse" x="0" y="0" width="20" height="20">
<g id="youtube_clip0_2051_12092_y">
<path id="Vector" d="M20 0H0V20H20V0Z" fill="white"/>
</g>
</mask>
<g mask="url(#mask0_1_708)">
<g id="Group">
<path id="Vector_2" fill-rule="evenodd" clip-rule="evenodd" d="M19.8 5.97253C19.8 5.97253 19.6044 4.58456 19.005 3.97347C18.2444 3.17097 17.3919 3.16722 17.0012 3.12065C14.2025 2.91675 10.0044 2.91675 10.0044 2.91675H9.99562C9.99562 2.91675 5.7975 2.91675 2.99875 3.12065C2.6075 3.16722 1.75563 3.17097 0.994375 3.97347C0.395 4.58472 0.2 5.97253 0.2 5.97253C0.2 5.97253 0 7.60284 0 9.23237V10.7607C0 12.3908 0.2 14.0205 0.2 14.0205C0.2 14.0205 0.395 15.4085 0.994375 16.0196C1.75563 16.8221 2.755 16.7969 3.2 16.8807C4.8 17.0355 10 17.0833 10 17.0833C10 17.0833 14.2025 17.0771 17.0012 16.8732C17.3919 16.826 18.2444 16.8222 19.005 16.0197C19.6044 15.4085 19.8 14.0207 19.8 14.0207C19.8 14.0207 20 12.391 20 10.7607V9.23237C20 7.60284 19.8 5.97253 19.8 5.97253ZM7.935 12.6125L7.93437 6.95331L13.3381 9.79269L7.935 12.6125Z" fill="#5D5D64"/>
</g>
</g>
</g>
</g>
<defs>
<clipPath id="clip0_1_708">
<rect width="20" height="20" fill="white"/>
</clipPath>
</defs>
</svg>
